<svg width="452" height="452" viewBox="0 0 452 452" fill="none" xmlns="http://www.w3.org/2000/svg">
<path d="M421.705 225.723C421.705 333.629 334.239 421.109 226.319 421.109C118.425 421.109 30.9453 333.629 30.9453 225.723C30.9453 117.829 118.425 30.3494 226.319 30.3494C334.239 30.3494 421.705 117.829 421.705 225.723Z" fill="white"/>
<mask id="mask0_4773_61142" style="mask-type:luminance" maskUnits="userSpaceOnUse" x="30" y="30" width="392" height="392">
<path d="M421.705 225.723C421.705 333.629 334.239 421.109 226.319 421.109C118.425 421.109 30.9453 333.629 30.9453 225.723C30.9453 117.829 118.425 30.3494 226.319 30.3494C334.239 30.3494 421.705 117.829 421.705 225.723Z" fill="white"/>
</mask>
<g mask="url(#mask0_4773_61142)">
<path d="M341.28 456.312C344.573 409.766 346.147 366.459 341.667 336.846C334.467 289.033 317.2 256.806 228.64 256.806C124.08 256.806 110.893 295.806 109.573 351.633C108.933 378.593 112.347 416.006 116.76 456.312H341.28Z" fill="#1B3444"/>
<path d="M253.038 273.236C253.038 273.236 248.758 292.93 228.638 292.93C207.225 292.93 204.238 273.236 204.238 273.236V215.023H253.038V273.236Z" fill="#F9AD77"/>
<path d="M183.853 152.806C183.853 163.152 175.453 171.539 165.093 171.539C154.759 171.539 146.359 163.152 146.359 152.806C146.359 142.446 154.759 134.072 165.093 134.072C175.453 134.072 183.853 142.446 183.853 152.806Z" fill="#FABAA2"/>
<path d="M307.943 151.884C307.943 162.231 299.557 170.617 289.21 170.617C278.863 170.617 270.477 162.231 270.477 151.884C270.477 141.537 278.863 133.151 289.21 133.151C299.557 133.151 307.943 141.537 307.943 151.884Z" fill="#FABAA2"/>
<path d="M166.051 161.367C166.198 107.927 164.091 42.7541 227.931 42.9141C291.784 43.1008 289.318 108.274 289.158 161.728C289.024 215.168 241.958 240.514 227.384 240.461C212.798 240.421 165.904 214.821 166.051 161.367Z" fill="#FABAA2"/>
<path d="M199.304 148.71C199.304 151.563 197.798 153.883 195.958 153.883C194.104 153.883 192.598 151.563 192.598 148.71C192.598 145.843 194.104 143.51 195.958 143.51C197.798 143.51 199.304 145.843 199.304 148.71Z" fill="#5A3114"/>
<path d="M262.759 148.71C262.759 151.563 261.266 153.883 259.399 153.883C257.559 153.883 256.039 151.563 256.039 148.71C256.039 145.843 257.559 143.51 259.399 143.51C261.266 143.51 262.759 145.843 262.759 148.71Z" fill="#5A3114"/>
<path d="M255.8 123.472C255.853 123.459 257.893 122.779 260.733 122.779C262.587 122.779 264.76 123.072 266.96 123.979C269.16 124.899 271.4 126.432 273.4 129.006C273.827 129.539 274.587 129.632 275.12 129.219C275.654 128.806 275.76 128.032 275.333 127.499C273.08 124.592 270.467 122.779 267.907 121.712C265.333 120.659 262.827 120.326 260.733 120.326C257.413 120.339 255.093 121.126 255 121.152C254.36 121.379 254.027 122.072 254.24 122.712C254.467 123.352 255.16 123.686 255.8 123.472Z" fill="#F0403D"/>
<path d="M200.358 121.152C200.278 121.126 197.958 120.339 194.625 120.326C192.532 120.326 190.025 120.659 187.452 121.712C184.892 122.779 182.265 124.592 180.011 127.499C179.598 128.032 179.692 128.806 180.225 129.219C180.758 129.632 181.518 129.539 181.945 129.006C183.945 126.432 186.185 124.899 188.385 123.979C190.598 123.072 192.772 122.779 194.625 122.779C196.092 122.779 197.345 122.966 198.225 123.139C198.665 123.219 199.012 123.312 199.238 123.379L199.505 123.446L199.558 123.472H199.572C200.212 123.686 200.905 123.352 201.118 122.712C201.345 122.072 200.998 121.379 200.358 121.152Z" fill="#F0403D"/>
<path d="M221.852 167.888C221.852 167.888 222.798 167.568 224.038 167.515C224.651 167.595 225.305 167.301 225.918 167.328C226.212 167.341 226.532 167.301 226.825 167.368C227.012 167.421 227.678 167.475 227.478 167.541C228.198 167.475 229.091 167.475 229.638 167.448C230.171 167.368 230.758 167.608 231.345 167.555C232.531 167.621 233.505 167.888 233.505 167.888C233.505 167.888 233.091 168.795 232.145 169.675C231.678 170.061 230.958 170.608 230.158 170.968C229.332 171.368 228.678 171.381 227.892 171.555C226.958 171.475 226.878 171.341 226.345 171.235C225.905 171.128 225.505 170.928 225.118 170.781C224.345 170.448 223.651 170.008 223.211 169.621C222.318 168.755 221.852 167.888 221.852 167.888Z" fill="#F9AD77"/>
<path d="M207.797 185.269C207.797 198.669 216.664 205.242 227.597 205.242C238.544 205.242 247.41 198.669 247.41 185.269C247.41 185.269 241.117 183.829 227.597 183.829C209.597 183.829 207.797 185.269 207.797 185.269Z" fill="#EF3644"/>
<path d="M227.597 183.832C209.597 183.832 207.797 185.272 207.797 185.272C207.797 187.659 208.09 189.965 208.624 192.139C208.837 193.099 246.37 193.125 246.584 192.245C247.117 190.032 247.41 187.699 247.41 185.272C247.41 185.272 241.117 183.832 227.597 183.832Z" fill="white"/>
<path d="M123.372 456.312C143.652 420.673 169.065 372.886 172.625 363.739L139.718 276.033C95.1318 292.833 43.8652 407.073 32.7852 456.312H123.372Z" fill="#1B3444"/>
<path d="M419.863 456.312C408.783 407.073 357.53 292.833 312.93 276.033L280.023 363.739C283.583 372.886 309.01 420.673 329.277 456.312H419.863Z" fill="#1B3444"/>
<path d="M168.078 139.703C168.078 132.436 168.572 105.93 170.838 99.6897C187.998 52.703 277.345 61.5965 284.452 101.73C285.585 108.063 289.131 129.223 289.371 134.076C291.651 134.076 301.411 104.996 301.411 78.9965C301.411 70.1965 298.598 57.1831 294.211 51.6365C291.825 48.6098 281.545 42.8365 281.545 42.8365C281.545 42.8365 272.652 26.2497 267.532 21.8897C246.078 3.63637 209.345 10.2765 185.278 19.5965C166.785 26.7565 157.585 49.943 154.092 60.023C139.478 102.143 168.078 139.703 168.078 139.703Z" fill="#F0403D"/>
<path d="M271.238 81.3531C271.238 81.3531 237.438 58.3532 224.518 28.0332C224.518 28.0332 212.171 39.6998 215.438 50.2065C215.438 50.2065 196.091 41.7265 198.624 27.4865C198.624 27.4865 180.331 42.1532 184.811 61.9798C156.438 54.0598 158.238 42.4332 158.238 42.4332C141.184 64.4999 159.945 101.007 169.851 107.727C169.851 107.727 173.158 94.9665 175.344 91.2065C183.558 77.0198 194.811 74.5265 202.931 73.7398C219.718 72.1265 249.958 70.8998 271.238 81.3531Z" fill="#F35F72"/>
<path d="M220.239 324.633H233.879L243.293 293.166H210.812L220.239 324.633Z" fill="#ED1B4B"/>
<path d="M239.638 456.312L233.878 324.633H220.238L214.465 456.312H239.638Z" fill="#ED1B4B"/>
<path d="M251.464 255.723L227.051 293.163L246.584 308.562L265.437 272.029C265.437 272.029 256.611 253.043 251.464 255.723Z" fill="#FFF8CD"/>
<path d="M202.652 254.202L227.052 293.163L207.345 308.562L188.492 272.029C188.492 272.029 197.492 251.536 202.652 254.202Z" fill="#FFF8CD"/>
</g>
<path d="M401.202 95.6929C428.242 132 444.242 176.973 444.242 225.72C444.242 285.906 419.855 340.359 380.415 379.799C340.975 419.239 286.522 443.626 226.322 443.626C166.135 443.626 111.695 419.239 72.2418 379.799C32.8151 340.359 8.42852 285.906 8.42852 225.72C8.42852 165.533 32.8151 111.079 72.2418 71.6395C111.695 32.1995 166.135 7.82612 226.322 7.81279C261.535 7.81279 294.762 16.1595 324.189 30.9728C326.029 31.9061 328.295 31.1595 329.229 29.3061C330.162 27.4528 329.415 25.1995 327.562 24.2662C297.122 8.94617 262.722 0.306147 226.322 0.306147C101.829 0.306147 0.921875 101.226 0.921875 225.72C0.921875 350.213 101.829 451.133 226.322 451.133C350.829 451.133 451.748 350.226 451.748 225.72C451.748 175.32 435.189 128.746 407.229 91.1995C405.989 89.5462 403.642 89.1995 401.975 90.4395C400.308 91.6795 399.962 94.0262 401.202 95.6929Z" fill="white"/>
</svg>
